<?xml version="1.0" encoding="UTF-8"?>
<svg xmlns="http://www.w3.org/2000/svg" xmlns:xlink="http://www.w3.org/1999/xlink" width="16px" height="16px" viewBox="0 0 16 16" version="1.1">
<g id="surface13188">
<path style=" stroke:none;fill-rule:nonzero;fill:rgb(18.039216%,20.392157%,21.176471%);fill-opacity:1;" d="M 11.507812 3.078125 L 3.078125 11.507812 C 3.84375 11.546875 4.453125 12.15625 4.492188 12.921875 L 12.921875 4.492188 C 12.15625 4.453125 11.546875 3.84375 11.507812 3.078125 Z M 11.507812 3.078125 "/>
<path style=" stroke:none;fill-rule:nonzero;fill:rgb(18.039216%,20.392157%,21.176471%);fill-opacity:1;" d="M 3 11 C 1.902344 11 1 11.902344 1 13 C 1 14.097656 1.902344 15 3 15 C 4.097656 15 5 14.097656 5 13 C 5 11.902344 4.097656 11 3 11 Z M 3 12 C 3.558594 12 4 12.441406 4 13 C 4 13.558594 3.558594 14 3 14 C 2.441406 14 2 13.558594 2 13 C 2 12.441406 2.441406 12 3 12 Z M 3 12 "/>
<path style=" stroke:none;fill-rule:nonzero;fill:rgb(18.039216%,20.392157%,21.176471%);fill-opacity:1;" d="M 13 1 C 11.902344 1 11 1.902344 11 3 C 11 4.097656 11.902344 5 13 5 C 14.097656 5 15 4.097656 15 3 C 15 1.902344 14.097656 1 13 1 Z M 13 2 C 13.558594 2 14 2.441406 14 3 C 14 3.558594 13.558594 4 13 4 C 12.441406 4 12 3.558594 12 3 C 12 2.441406 12.441406 2 13 2 Z M 13 2 "/>
</g>
</svg>
