<?xml version="1.0" encoding="UTF-8"?>
<svg xmlns="http://www.w3.org/2000/svg" xmlns:xlink="http://www.w3.org/1999/xlink" width="16px" height="16px" viewBox="0 0 16 16" version="1.1">
<g id="surface13206">
<path style=" stroke:none;fill-rule:nonzero;fill:rgb(18.039216%,20.392157%,21.176471%);fill-opacity:1;" d="M 13 0 C 13 0.496094 13.003906 1.238281 13.015625 1.878906 C 13.28125 1.644531 13.621094 1.5 14 1.5 C 14.402344 1.5 14.765625 1.660156 15.039062 1.921875 C 15.019531 1.1875 15 0.519531 15 0 Z M 15.058594 4.066406 C 14.785156 4.332031 14.414062 4.5 14 4.5 C 13.625 4.5 13.289062 4.359375 13.027344 4.132812 C 13.003906 5.515625 12.917969 6.886719 12.660156 7.871094 C 12.585938 8.140625 12.503906 8.371094 12.417969 8.566406 C 13.042969 8.75 13.5 9.316406 13.5 10 C 13.5 10.230469 13.445312 10.445312 13.355469 10.640625 C 13.507812 10.503906 13.652344 10.363281 13.773438 10.207031 C 14.175781 9.675781 14.414062 9.050781 14.59375 8.378906 C 14.933594 7.082031 15.039062 5.535156 15.058594 4.066406 Z M 4.199219 4.738281 C 4.128906 4.738281 4.058594 4.734375 3.988281 4.742188 C 3.257812 4.832031 2.632812 5.265625 2.230469 5.796875 C 1.824219 6.328125 1.585938 6.949219 1.410156 7.621094 C 1.066406 8.917969 0.960938 10.464844 0.945312 11.9375 C 1.214844 11.667969 1.585938 11.5 2 11.5 C 2.375 11.5 2.710938 11.640625 2.976562 11.871094 C 2.996094 10.484375 3.082031 9.113281 3.34375 8.128906 C 3.476562 7.613281 3.660156 7.222656 3.824219 7.007812 C 3.839844 6.984375 3.847656 6.984375 3.863281 6.964844 C 3.640625 6.703125 3.5 6.371094 3.5 6 C 3.5 5.46875 3.78125 5.003906 4.199219 4.738281 Z M 6.347656 5.351562 C 6.441406 5.546875 6.5 5.765625 6.5 6 C 6.5 6.59375 6.152344 7.101562 5.652344 7.347656 C 6.113281 7.652344 6.644531 8.058594 7.292969 8.707031 C 8.761719 10.175781 9.96875 11.03125 11.140625 11.226562 C 10.753906 10.957031 10.5 10.507812 10.5 10 C 10.5 9.609375 10.652344 9.257812 10.898438 8.992188 C 10.363281 8.71875 9.640625 8.226562 8.707031 7.292969 C 7.84375 6.429688 7.074219 5.78125 6.347656 5.351562 Z M 0.964844 14.082031 C 0.980469 14.8125 1 15.480469 1 16 L 3 16 C 3 15.503906 2.996094 14.761719 2.984375 14.125 C 2.71875 14.355469 2.378906 14.5 2 14.5 C 1.597656 14.5 1.234375 14.339844 0.964844 14.082031 Z M 0.964844 14.082031 "/>
<path style=" stroke:none;fill-rule:nonzero;fill:rgb(18.039216%,20.392157%,21.176471%);fill-opacity:1;" d="M 2 11 C 0.902344 11 0 11.902344 0 13 C 0 14.097656 0.902344 15 2 15 C 3.097656 15 4 14.097656 4 13 C 4 11.902344 3.097656 11 2 11 Z M 2 12 C 2.558594 12 3 12.441406 3 13 C 3 13.558594 2.558594 14 2 14 C 1.441406 14 1 13.558594 1 13 C 1 12.441406 1.441406 12 2 12 Z M 2 12 "/>
<path style=" stroke:none;fill-rule:nonzero;fill:rgb(18.039216%,20.392157%,21.176471%);fill-opacity:1;" d="M 14 1 C 12.902344 1 12 1.902344 12 3 C 12 4.097656 12.902344 5 14 5 C 15.097656 5 16 4.097656 16 3 C 16 1.902344 15.097656 1 14 1 Z M 14 2 C 14.558594 2 15 2.441406 15 3 C 15 3.558594 14.558594 4 14 4 C 13.441406 4 13 3.558594 13 3 C 13 2.441406 13.441406 2 14 2 Z M 14 2 "/>
<path style=" stroke:none;fill-rule:nonzero;fill:rgb(18.039216%,20.392157%,21.176471%);fill-opacity:1;" d="M 5 4 C 3.902344 4 3 4.902344 3 6 C 3 7.097656 3.902344 8 5 8 C 6.097656 8 7 7.097656 7 6 C 7 4.902344 6.097656 4 5 4 Z M 5 5 C 5.558594 5 6 5.441406 6 6 C 6 6.558594 5.558594 7 5 7 C 4.441406 7 4 6.558594 4 6 C 4 5.441406 4.441406 5 5 5 Z M 5 5 "/>
<path style=" stroke:none;fill-rule:nonzero;fill:rgb(18.039216%,20.392157%,21.176471%);fill-opacity:1;" d="M 12 8 C 10.902344 8 10 8.902344 10 10 C 10 11.097656 10.902344 12 12 12 C 13.097656 12 14 11.097656 14 10 C 14 8.902344 13.097656 8 12 8 Z M 12 9 C 12.558594 9 13 9.441406 13 10 C 13 10.558594 12.558594 11 12 11 C 11.441406 11 11 10.558594 11 10 C 11 9.441406 11.441406 9 12 9 Z M 12 9 "/>
</g>
</svg>
