<?xml version="1.0" encoding="UTF-8"?>
<svg xmlns="http://www.w3.org/2000/svg" xmlns:xlink="http://www.w3.org/1999/xlink" width="16px" height="16px" viewBox="0 0 16 16" version="1.1">
<g id="surface13200">
<path style=" stroke:none;fill-rule:nonzero;fill:rgb(18.039216%,20.392157%,21.176471%);fill-opacity:1;" d="M 15 1.15625 C 13.980469 1.328125 12.828125 1.488281 11.671875 1.664062 C 12.160156 1.910156 12.5 2.414062 12.5 3 C 12.5 3.207031 12.457031 3.40625 12.382812 3.589844 C 13.261719 3.457031 14.152344 3.328125 15 3.1875 Z M 15 12.816406 C 14.152344 12.675781 13.261719 12.542969 12.382812 12.414062 C 12.457031 12.59375 12.5 12.792969 12.5 13 C 12.5 13.585938 12.160156 14.09375 11.667969 14.339844 C 12.828125 14.515625 13.976562 14.671875 15 14.847656 Z M 9.921875 14.039062 C 9.660156 13.769531 9.5 13.402344 9.5 13 C 9.5 12.613281 9.652344 12.261719 9.894531 11.996094 C 9.199219 11.863281 8.523438 11.71875 7.898438 11.539062 C 6.664062 11.1875 5.636719 10.71875 4.984375 10.152344 C 4.574219 9.796875 4.304688 9.417969 4.152344 8.949219 C 3.878906 9.28125 3.464844 9.5 3 9.5 C 2.691406 9.5 2.402344 9.40625 2.164062 9.246094 C 2.417969 10.214844 2.957031 11.042969 3.671875 11.664062 C 4.675781 12.53125 5.960938 13.066406 7.351562 13.464844 C 8.175781 13.699219 9.046875 13.878906 9.921875 14.039062 Z M 9.917969 1.964844 C 9.046875 2.125 8.175781 2.300781 7.347656 2.539062 C 5.960938 2.9375 4.675781 3.46875 3.671875 4.339844 C 2.957031 4.960938 2.417969 5.785156 2.164062 6.753906 C 2.402344 6.59375 2.691406 6.5 3 6.5 C 3.464844 6.5 3.878906 6.71875 4.152344 7.054688 C 4.304688 6.585938 4.574219 6.207031 4.984375 5.851562 C 5.636719 5.28125 6.664062 4.816406 7.898438 4.464844 C 8.523438 4.285156 9.199219 4.140625 9.894531 4.007812 C 9.652344 3.738281 9.5 3.390625 9.5 3 C 9.5 2.597656 9.660156 2.234375 9.921875 1.964844 Z M 9.917969 1.964844 "/>
<path style=" stroke:none;fill-rule:nonzero;fill:rgb(18.039216%,20.392157%,21.176471%);fill-opacity:1;" d="M 5 8 C 5 6.902344 4.097656 6 3 6 C 1.902344 6 1 6.902344 1 8 C 1 9.097656 1.902344 10 3 10 C 4.097656 10 5 9.097656 5 8 Z M 4 8 C 4 8.558594 3.558594 9 3 9 C 2.441406 9 2 8.558594 2 8 C 2 7.441406 2.441406 7 3 7 C 3.558594 7 4 7.441406 4 8 Z M 4 8 "/>
<path style=" stroke:none;fill-rule:nonzero;fill:rgb(18.039216%,20.392157%,21.176471%);fill-opacity:1;" d="M 13 13 C 13 11.902344 12.097656 11 11 11 C 9.902344 11 9 11.902344 9 13 C 9 14.097656 9.902344 15 11 15 C 12.097656 15 13 14.097656 13 13 Z M 12 13 C 12 13.558594 11.558594 14 11 14 C 10.441406 14 10 13.558594 10 13 C 10 12.441406 10.441406 12 11 12 C 11.558594 12 12 12.441406 12 13 Z M 12 13 "/>
<path style=" stroke:none;fill-rule:nonzero;fill:rgb(18.039216%,20.392157%,21.176471%);fill-opacity:1;" d="M 13 3 C 13 1.902344 12.097656 1 11 1 C 9.902344 1 9 1.902344 9 3 C 9 4.097656 9.902344 5 11 5 C 12.097656 5 13 4.097656 13 3 Z M 12 3 C 12 3.558594 11.558594 4 11 4 C 10.441406 4 10 3.558594 10 3 C 10 2.441406 10.441406 2 11 2 C 11.558594 2 12 2.441406 12 3 Z M 12 3 "/>
</g>
</svg>
