<?xml version="1.0" encoding="UTF-8"?>
<svg xmlns="http://www.w3.org/2000/svg" xmlns:xlink="http://www.w3.org/1999/xlink" width="16px" height="16px" viewBox="0 0 16 16" version="1.1">
<g id="surface13212">
<path style=" stroke:none;fill-rule:nonzero;fill:rgb(18.039216%,20.392157%,21.176471%);fill-opacity:1;" d="M 0 3 C 0.496094 3 1.238281 2.996094 1.878906 2.984375 C 1.644531 2.71875 1.5 2.378906 1.5 2 C 1.5 1.597656 1.660156 1.234375 1.921875 0.960938 C 1.1875 0.980469 0.519531 1 0 1 Z M 4.066406 0.941406 C 4.332031 1.214844 4.5 1.585938 4.5 2 C 4.5 2.375 4.359375 2.710938 4.132812 2.972656 C 5.515625 2.996094 6.886719 3.082031 7.871094 3.339844 C 8.140625 3.414062 8.371094 3.496094 8.566406 3.582031 C 8.75 2.957031 9.316406 2.5 10 2.5 C 10.230469 2.5 10.445312 2.554688 10.640625 2.644531 C 10.503906 2.492188 10.363281 2.347656 10.207031 2.226562 C 9.675781 1.824219 9.050781 1.585938 8.378906 1.40625 C 7.082031 1.066406 5.535156 0.960938 4.066406 0.941406 Z M 4.738281 11.800781 C 4.742188 11.871094 4.734375 11.941406 4.742188 12.011719 C 4.832031 12.742188 5.265625 13.367188 5.796875 13.769531 C 6.328125 14.175781 6.949219 14.414062 7.621094 14.589844 C 8.917969 14.933594 10.464844 15.039062 11.9375 15.054688 C 11.667969 14.785156 11.5 14.414062 11.5 14 C 11.5 13.625 11.640625 13.289062 11.871094 13.023438 C 10.484375 13.003906 9.113281 12.917969 8.128906 12.65625 C 7.613281 12.523438 7.222656 12.339844 7.007812 12.175781 C 6.984375 12.160156 6.984375 12.152344 6.964844 12.136719 C 6.703125 12.359375 6.371094 12.5 6 12.5 C 5.46875 12.5 5.003906 12.21875 4.738281 11.800781 Z M 5.351562 9.652344 C 5.546875 9.558594 5.765625 9.5 6 9.5 C 6.59375 9.5 7.101562 9.847656 7.347656 10.347656 C 7.652344 9.886719 8.058594 9.355469 8.707031 8.707031 C 10.175781 7.238281 11.03125 6.03125 11.226562 4.859375 C 10.957031 5.246094 10.507812 5.5 10 5.5 C 9.609375 5.5 9.257812 5.347656 8.992188 5.101562 C 8.71875 5.636719 8.226562 6.359375 7.292969 7.292969 C 6.429688 8.15625 5.78125 8.925781 5.351562 9.652344 Z M 14.082031 15.035156 C 14.8125 15.019531 15.480469 15 16 15 L 16 13 C 15.503906 13 14.761719 13.003906 14.125 13.015625 C 14.355469 13.28125 14.5 13.621094 14.5 14 C 14.5 14.402344 14.339844 14.765625 14.082031 15.035156 Z M 14.082031 15.035156 "/>
<path style=" stroke:none;fill-rule:nonzero;fill:rgb(18.039216%,20.392157%,21.176471%);fill-opacity:1;" d="M 11 14 C 11 15.097656 11.902344 16 13 16 C 14.097656 16 15 15.097656 15 14 C 15 12.902344 14.097656 12 13 12 C 11.902344 12 11 12.902344 11 14 Z M 12 14 C 12 13.441406 12.441406 13 13 13 C 13.558594 13 14 13.441406 14 14 C 14 14.558594 13.558594 15 13 15 C 12.441406 15 12 14.558594 12 14 Z M 12 14 "/>
<path style=" stroke:none;fill-rule:nonzero;fill:rgb(18.039216%,20.392157%,21.176471%);fill-opacity:1;" d="M 1 2 C 1 3.097656 1.902344 4 3 4 C 4.097656 4 5 3.097656 5 2 C 5 0.902344 4.097656 0 3 0 C 1.902344 0 1 0.902344 1 2 Z M 2 2 C 2 1.441406 2.441406 1 3 1 C 3.558594 1 4 1.441406 4 2 C 4 2.558594 3.558594 3 3 3 C 2.441406 3 2 2.558594 2 2 Z M 2 2 "/>
<path style=" stroke:none;fill-rule:nonzero;fill:rgb(18.039216%,20.392157%,21.176471%);fill-opacity:1;" d="M 4 11 C 4 12.097656 4.902344 13 6 13 C 7.097656 13 8 12.097656 8 11 C 8 9.902344 7.097656 9 6 9 C 4.902344 9 4 9.902344 4 11 Z M 5 11 C 5 10.441406 5.441406 10 6 10 C 6.558594 10 7 10.441406 7 11 C 7 11.558594 6.558594 12 6 12 C 5.441406 12 5 11.558594 5 11 Z M 5 11 "/>
<path style=" stroke:none;fill-rule:nonzero;fill:rgb(18.039216%,20.392157%,21.176471%);fill-opacity:1;" d="M 8 4 C 8 5.097656 8.902344 6 10 6 C 11.097656 6 12 5.097656 12 4 C 12 2.902344 11.097656 2 10 2 C 8.902344 2 8 2.902344 8 4 Z M 9 4 C 9 3.441406 9.441406 3 10 3 C 10.558594 3 11 3.441406 11 4 C 11 4.558594 10.558594 5 10 5 C 9.441406 5 9 4.558594 9 4 Z M 9 4 "/>
</g>
</svg>
