<?xml version="1.0" encoding="UTF-8"?>
<svg xmlns="http://www.w3.org/2000/svg" xmlns:xlink="http://www.w3.org/1999/xlink" width="16px" height="16px" viewBox="0 0 16 16" version="1.1">
<g id="surface1400">
<path style=" stroke:none;fill-rule:nonzero;fill:rgb(18.039216%,20.392157%,21.176471%);fill-opacity:1;" d="M 12.738281 0 C 12.609375 0.554688 12.496094 1.070312 12.339844 1.675781 C 12.542969 1.566406 12.769531 1.507812 13 1.5 C 13.519531 1.503906 14.003906 1.773438 14.273438 2.210938 C 14.488281 1.386719 14.640625 0.6875 14.792969 0 Z M 11.71875 3.78125 C 11.316406 4.929688 10.800781 6.078125 10.105469 7.136719 C 9.789062 7.617188 9.421875 8.070312 9.03125 8.503906 C 9.789062 8.523438 10.414062 9.097656 10.492188 9.84375 C 10.964844 9.328125 11.40625 8.796875 11.773438 8.238281 C 12.601562 6.980469 13.195312 5.648438 13.644531 4.355469 C 13.445312 4.449219 13.222656 4.5 13 4.5 C 12.476562 4.496094 11.992188 4.222656 11.71875 3.78125 Z M 7.515625 9.898438 C 6.464844 10.664062 5.191406 11.269531 3.601562 11.628906 C 4.152344 11.867188 4.507812 12.402344 4.511719 13 C 4.507812 13.152344 4.484375 13.304688 4.433594 13.449219 C 6.125 13 7.550781 12.300781 8.742188 11.429688 C 8.035156 11.308594 7.511719 10.710938 7.488281 10 C 7.496094 9.964844 7.503906 9.933594 7.515625 9.898438 Z M 2.058594 11.886719 C 1.414062 11.957031 0.734375 12 0 12 L 0 14 C 0.644531 14 1.257812 13.964844 1.851562 13.90625 C 1.628906 13.652344 1.503906 13.335938 1.488281 13 C 1.503906 12.5625 1.714844 12.15625 2.058594 11.886719 Z M 2.058594 11.886719 "/>
<path style=" stroke:none;fill-rule:nonzero;fill:rgb(18.039216%,20.392157%,21.176471%);fill-opacity:1;" d="M 1 13 C 1 14.097656 1.902344 15 3 15 C 4.097656 15 5 14.097656 5 13 C 5 11.902344 4.097656 11 3 11 C 1.902344 11 1 11.902344 1 13 Z M 2 13 C 2 12.441406 2.441406 12 3 12 C 3.558594 12 4 12.441406 4 13 C 4 13.558594 3.558594 14 3 14 C 2.441406 14 2 13.558594 2 13 Z M 2 13 "/>
<path style=" stroke:none;fill-rule:nonzero;fill:rgb(18.039216%,20.392157%,21.176471%);fill-opacity:1;" d="M 7 10 C 7 11.097656 7.902344 12 9 12 C 10.097656 12 11 11.097656 11 10 C 11 8.902344 10.097656 8 9 8 C 7.902344 8 7 8.902344 7 10 Z M 8 10 C 8 9.441406 8.441406 9 9 9 C 9.558594 9 10 9.441406 10 10 C 10 10.558594 9.558594 11 9 11 C 8.441406 11 8 10.558594 8 10 Z M 8 10 "/>
<path style=" stroke:none;fill-rule:nonzero;fill:rgb(18.039216%,20.392157%,21.176471%);fill-opacity:1;" d="M 11 3 C 11 4.097656 11.902344 5 13 5 C 14.097656 5 15 4.097656 15 3 C 15 1.902344 14.097656 1 13 1 C 11.902344 1 11 1.902344 11 3 Z M 12 3 C 12 2.441406 12.441406 2 13 2 C 13.558594 2 14 2.441406 14 3 C 14 3.558594 13.558594 4 13 4 C 12.441406 4 12 3.558594 12 3 Z M 12 3 "/>
</g>
</svg>
