<?xml version="1.0" encoding="UTF-8"?>
<svg xmlns="http://www.w3.org/2000/svg" xmlns:xlink="http://www.w3.org/1999/xlink" width="16px" height="16px" viewBox="0 0 16 16" version="1.1">
<g id="surface13194">
<path style=" stroke:none;fill-rule:nonzero;fill:rgb(18.039216%,20.392157%,21.176471%);fill-opacity:1;" d="M 1.15625 1 C 1.328125 2.019531 1.488281 3.171875 1.664062 4.332031 C 1.910156 3.839844 2.414062 3.5 3 3.5 C 3.207031 3.5 3.40625 3.542969 3.589844 3.617188 C 3.457031 2.738281 3.328125 1.847656 3.1875 1 Z M 12.816406 1 C 12.675781 1.847656 12.542969 2.738281 12.410156 3.617188 C 12.59375 3.542969 12.792969 3.5 13 3.5 C 13.585938 3.5 14.09375 3.839844 14.339844 4.332031 C 14.515625 3.171875 14.671875 2.023438 14.847656 1 Z M 14.039062 6.078125 C 13.769531 6.339844 13.402344 6.5 13 6.5 C 12.613281 6.5 12.261719 6.347656 11.996094 6.105469 C 11.863281 6.800781 11.71875 7.476562 11.539062 8.101562 C 11.1875 9.335938 10.71875 10.363281 10.152344 11.019531 C 9.796875 11.425781 9.417969 11.695312 8.949219 11.847656 C 9.28125 12.121094 9.5 12.535156 9.5 13 C 9.5 13.308594 9.40625 13.597656 9.246094 13.835938 C 10.214844 13.582031 11.042969 13.042969 11.660156 12.328125 C 12.53125 11.324219 13.066406 10.039062 13.464844 8.648438 C 13.699219 7.824219 13.878906 6.953125 14.039062 6.078125 Z M 1.964844 6.082031 C 2.125 6.953125 2.300781 7.824219 2.539062 8.648438 C 2.9375 10.039062 3.46875 11.324219 4.339844 12.328125 C 4.960938 13.042969 5.785156 13.582031 6.753906 13.835938 C 6.59375 13.597656 6.5 13.308594 6.5 13 C 6.5 12.535156 6.71875 12.121094 7.050781 11.847656 C 6.585938 11.695312 6.207031 11.425781 5.847656 11.019531 C 5.28125 10.363281 4.816406 9.335938 4.464844 8.101562 C 4.285156 7.476562 4.140625 6.800781 4.003906 6.105469 C 3.738281 6.347656 3.390625 6.5 3 6.5 C 2.597656 6.5 2.234375 6.339844 1.964844 6.082031 Z M 1.964844 6.082031 "/>
<path style=" stroke:none;fill-rule:nonzero;fill:rgb(18.039216%,20.392157%,21.176471%);fill-opacity:1;" d="M 8 11 C 6.902344 11 6 11.902344 6 13 C 6 14.097656 6.902344 15 8 15 C 9.097656 15 10 14.097656 10 13 C 10 11.902344 9.097656 11 8 11 Z M 8 12 C 8.558594 12 9 12.441406 9 13 C 9 13.558594 8.558594 14 8 14 C 7.441406 14 7 13.558594 7 13 C 7 12.441406 7.441406 12 8 12 Z M 8 12 "/>
<path style=" stroke:none;fill-rule:nonzero;fill:rgb(18.039216%,20.392157%,21.176471%);fill-opacity:1;" d="M 13 3 C 11.902344 3 11 3.902344 11 5 C 11 6.097656 11.902344 7 13 7 C 14.097656 7 15 6.097656 15 5 C 15 3.902344 14.097656 3 13 3 Z M 13 4 C 13.558594 4 14 4.441406 14 5 C 14 5.558594 13.558594 6 13 6 C 12.441406 6 12 5.558594 12 5 C 12 4.441406 12.441406 4 13 4 Z M 13 4 "/>
<path style=" stroke:none;fill-rule:nonzero;fill:rgb(18.039216%,20.392157%,21.176471%);fill-opacity:1;" d="M 3 3 C 1.902344 3 1 3.902344 1 5 C 1 6.097656 1.902344 7 3 7 C 4.097656 7 5 6.097656 5 5 C 5 3.902344 4.097656 3 3 3 Z M 3 4 C 3.558594 4 4 4.441406 4 5 C 4 5.558594 3.558594 6 3 6 C 2.441406 6 2 5.558594 2 5 C 2 4.441406 2.441406 4 3 4 Z M 3 4 "/>
</g>
</svg>
