<?xml version="1.0" encoding="UTF-8"?>
<svg height="16px" viewBox="0 0 16 16" width="16px" xmlns="http://www.w3.org/2000/svg" xmlns:xlink="http://www.w3.org/1999/xlink">
    <filter id="a" height="100%" width="100%" x="0%" y="0%">
        <feColorMatrix in="SourceGraphic" type="matrix" values="0 0 0 0 1 0 0 0 0 1 0 0 0 0 1 0 0 0 1 0"/>
    </filter>
    <mask id="b">
        <g filter="url(#a)">
            <rect fill-opacity="0.1" height="16" width="16"/>
        </g>
    </mask>
    <clipPath id="c">
        <rect height="152" width="192"/>
    </clipPath>
    <mask id="d">
        <g filter="url(#a)">
            <rect fill-opacity="0.1" height="16" width="16"/>
        </g>
    </mask>
    <clipPath id="e">
        <rect height="152" width="192"/>
    </clipPath>
    <mask id="f">
        <g filter="url(#a)">
            <rect fill-opacity="0.5" height="16" width="16"/>
        </g>
    </mask>
    <clipPath id="g">
        <rect height="152" width="192"/>
    </clipPath>
    <mask id="h">
        <g filter="url(#a)">
            <rect fill-opacity="0.199" height="16" width="16"/>
        </g>
    </mask>
    <clipPath id="i">
        <rect height="152" width="192"/>
    </clipPath>
    <mask id="j">
        <g filter="url(#a)">
            <rect fill-opacity="0.199" height="16" width="16"/>
        </g>
    </mask>
    <clipPath id="k">
        <rect height="152" width="192"/>
    </clipPath>
    <mask id="l">
        <g filter="url(#a)">
            <rect fill-opacity="0.199" height="16" width="16"/>
        </g>
    </mask>
    <clipPath id="m">
        <rect height="152" width="192"/>
    </clipPath>
    <mask id="n">
        <g filter="url(#a)">
            <rect fill-opacity="0.199" height="16" width="16"/>
        </g>
    </mask>
    <clipPath id="o">
        <rect height="152" width="192"/>
    </clipPath>
    <g fill="#2e3335">
        <path d="m 13 0 c 0 0.496094 0.003906 1.238281 0.015625 1.878906 c 0.265625 -0.234375 0.605469 -0.378906 0.984375 -0.378906 c 0.402344 0 0.765625 0.160156 1.039062 0.421875 c -0.019531 -0.734375 -0.039062 -1.402344 -0.039062 -1.921875 z m 2.058594 4.066406 c -0.273438 0.265625 -0.644532 0.433594 -1.058594 0.433594 c -0.375 0 -0.710938 -0.140625 -0.972656 -0.367188 c -0.023438 1.382813 -0.109375 2.753907 -0.367188 3.738282 c -0.074218 0.269531 -0.15625 0.5 -0.242187 0.695312 c 0.625 0.183594 1.082031 0.75 1.082031 1.433594 c 0 0.230469 -0.054688 0.445312 -0.144531 0.640625 c 0.152343 -0.136719 0.296875 -0.277344 0.417969 -0.433594 c 0.402343 -0.53125 0.640624 -1.15625 0.820312 -1.828125 c 0.339844 -1.296875 0.445312 -2.84375 0.464844 -4.3125 z m -10.859375 0.671875 c -0.070313 0 -0.140625 -0.003906 -0.210938 0.003907 c -0.730469 0.089843 -1.355469 0.523437 -1.757812 1.054687 c -0.40625 0.53125 -0.644531 1.152344 -0.820313 1.824219 c -0.34375 1.296875 -0.449218 2.84375 -0.464844 4.316406 c 0.269532 -0.269531 0.640626 -0.4375 1.054688 -0.4375 c 0.375 0 0.710938 0.140625 0.976562 0.371094 c 0.019532 -1.386719 0.105469 -2.757813 0.367188 -3.742188 c 0.132812 -0.515625 0.316406 -0.90625 0.480469 -1.121094 c 0.015625 -0.023437 0.023437 -0.023437 0.039062 -0.042968 c -0.222656 -0.261719 -0.363281 -0.59375 -0.363281 -0.964844 c 0 -0.53125 0.28125 -0.996094 0.699219 -1.261719 z m 2.148437 0.613281 c 0.09375 0.195313 0.152344 0.414063 0.152344 0.648438 c 0 0.59375 -0.347656 1.101562 -0.847656 1.347656 c 0.460937 0.304688 0.992187 0.710938 1.640625 1.359375 c 1.46875 1.46875 2.675781 2.324219 3.847656 2.519531 c -0.386719 -0.269531 -0.640625 -0.71875 -0.640625 -1.226562 c 0 -0.390625 0.152344 -0.742188 0.398438 -1.007812 c -0.535157 -0.273438 -1.257813 -0.765626 -2.191407 -1.699219 c -0.863281 -0.863281 -1.632812 -1.511719 -2.359375 -1.941407 z m -5.382812 8.730469 c 0.015625 0.730469 0.035156 1.398438 0.035156 1.917969 h 2 c 0 -0.496094 -0.003906 -1.238281 -0.015625 -1.875 c -0.265625 0.230469 -0.605469 0.375 -0.984375 0.375 c -0.402344 0 -0.765625 -0.160156 -1.035156 -0.417969 z m 0 0"/>
        <path d="m 2 11 c -1.097656 0 -2 0.902344 -2 2 s 0.902344 2 2 2 s 2 -0.902344 2 -2 s -0.902344 -2 -2 -2 z m 0 1 c 0.558594 0 1 0.441406 1 1 s -0.441406 1 -1 1 s -1 -0.441406 -1 -1 s 0.441406 -1 1 -1 z m 0 0"/>
        <path d="m 14 1 c -1.097656 0 -2 0.902344 -2 2 s 0.902344 2 2 2 s 2 -0.902344 2 -2 s -0.902344 -2 -2 -2 z m 0 1 c 0.558594 0 1 0.441406 1 1 s -0.441406 1 -1 1 s -1 -0.441406 -1 -1 s 0.441406 -1 1 -1 z m 0 0"/>
        <path d="m 5 4 c -1.097656 0 -2 0.902344 -2 2 s 0.902344 2 2 2 s 2 -0.902344 2 -2 s -0.902344 -2 -2 -2 z m 0 1 c 0.558594 0 1 0.441406 1 1 s -0.441406 1 -1 1 s -1 -0.441406 -1 -1 s 0.441406 -1 1 -1 z m 0 0"/>
        <path d="m 12 8 c -1.097656 0 -2 0.902344 -2 2 s 0.902344 2 2 2 s 2 -0.902344 2 -2 s -0.902344 -2 -2 -2 z m 0 1 c 0.558594 0 1 0.441406 1 1 s -0.441406 1 -1 1 s -1 -0.441406 -1 -1 s 0.441406 -1 1 -1 z m 0 0"/>
    </g>
    <g clip-path="url(#c)" mask="url(#b)" transform="matrix(1 0 0 1 -168 -16)">
        <path d="m 124 115.652344 c -0.082031 4.09375 -3.378906 7.347656 -7.492188 7.347656 h -0.5 v 1 h 0.5 c 3.246094 0 6.058594 -1.8125 7.492188 -4.484375 z m -32 7.347656 l 24 1 v -1 z m 0 0"/>
    </g>
    <g clip-path="url(#e)" mask="url(#d)" transform="matrix(1 0 0 1 -168 -16)">
        <path d="m 124 118.652344 c -0.082031 4.09375 -3.378906 7.347656 -7.492188 7.347656 h -0.5 v 1 h 0.5 c 3.222657 0 6.023438 -1.789062 7.460938 -4.429688 c 0.015625 -0.1875 0.03125 -0.378906 0.03125 -0.570312 z m -26 7.347656 l 18 1 v -1 z m 0 0"/>
    </g>
    <g clip-path="url(#g)" fill="none" mask="url(#f)" stroke="#deddda" transform="matrix(1 0 0 1 -168 -16)">
        <path d="m 12 233 h 104" stroke-width="2" transform="matrix(1 0 0 1 8 -158)"/>
        <path d="m 12 253 h 104" stroke-width="2" transform="matrix(1 0 0 1 8 -158)"/>
        <path d="m 12 263 h 104" stroke-width="2" transform="matrix(1 0 0 1 8 -158)"/>
        <path d="m 12 273 h 104" stroke-width="2" transform="matrix(1 0 0 1 8 -158)"/>
        <path d="m 12 223 h 104" stroke-width="2" transform="matrix(1 0 0 1 8 -158)"/>
        <path d="m 12 213 h 104" stroke-width="2" transform="matrix(1 0 0 1 8 -158)"/>
        <path d="m 12 203 h 104" stroke-width="2" transform="matrix(1 0 0 1 8 -158)"/>
        <path d="m 12 193 h 104" stroke-width="2" transform="matrix(1 0 0 1 8 -158)"/>
        <g stroke-width="1.97814">
            <path d="m 19.000005 233 h 90.000005" transform="matrix(0 1.022222 -1 0 300 8.577774)"/>
            <path d="m 19.000005 253 h 90.000005" transform="matrix(0 1.022222 -1 0 300 8.577774)"/>
            <path d="m 19.000005 263 h 90.000005" transform="matrix(0 1.022222 -1 0 300 8.577774)"/>
            <path d="m 19.000005 273 h 90.000005" transform="matrix(0 1.022222 -1 0 300 8.577774)"/>
            <path d="m 19.000005 223 h 90.000005" transform="matrix(0 1.022222 -1 0 300 8.577774)"/>
            <path d="m 19.000005 213 h 90.000005" transform="matrix(0 1.022222 -1 0 300 8.577774)"/>
            <path d="m 19.000005 203 h 90.000005" transform="matrix(0 1.022222 -1 0 300 8.577774)"/>
            <path d="m 19.000005 193 h 90.000005" transform="matrix(0 1.022222 -1 0 300 8.577774)"/>
            <path d="m 19.000005 183 h 90.000005" transform="matrix(0 1.022222 -1 0 300 8.577774)"/>
            <path d="m 19.000005 243 h 90.000005" transform="matrix(0 1.022222 -1 0 300 8.577774)"/>
        </g>
    </g>
    <g clip-path="url(#i)" mask="url(#h)" transform="matrix(1 0 0 1 -168 -16)">
        <path d="m 48.5 98 c 2.484375 0 4.5 2.015625 4.5 4.5 s -2.015625 4.5 -4.5 4.5 s -4.5 -2.015625 -4.5 -4.5 s 2.015625 -4.5 4.5 -4.5 z m 0 0"/>
    </g>
    <g clip-path="url(#k)" mask="url(#j)" transform="matrix(1 0 0 1 -168 -16)">
        <path d="m 65.5 55 c 2.484375 0 4.5 2.015625 4.5 4.5 s -2.015625 4.5 -4.5 4.5 s -4.5 -2.015625 -4.5 -4.5 s 2.015625 -4.5 4.5 -4.5 z m 0 0"/>
    </g>
    <g clip-path="url(#m)" mask="url(#l)" transform="matrix(1 0 0 1 -168 -16)">
        <path d="m 95.5 66 c 2.484375 0 4.5 2.015625 4.5 4.5 s -2.015625 4.5 -4.5 4.5 s -4.5 -2.015625 -4.5 -4.5 s 2.015625 -4.5 4.5 -4.5 z m 0 0"/>
    </g>
    <g clip-path="url(#o)" mask="url(#n)" transform="matrix(1 0 0 1 -168 -16)">
        <path d="m 111.5 45 c 2.484375 0 4.5 2.015625 4.5 4.5 s -2.015625 4.5 -4.5 4.5 s -4.5 -2.015625 -4.5 -4.5 s 2.015625 -4.5 4.5 -4.5 z m 0 0"/>
    </g>
</svg>
